<?xml version="1.0" encoding="utf-8" standalone="no"?>
<!DOCTYPE svg PUBLIC "-//W3C//DTD SVG 1.1//EN"
  "http://www.w3.org/Graphics/SVG/1.1/DTD/svg11.dtd">
<svg xmlns:xlink="http://www.w3.org/1999/xlink" width="549.05pt" height="441.105837pt" viewBox="0 0 549.05 441.105837" xmlns="http://www.w3.org/2000/svg" version="1.1">
 <metadata>
  <rdf:RDF xmlns:dc="http://purl.org/dc/elements/1.1/" xmlns:cc="http://creativecommons.org/ns#" xmlns:rdf="http://www.w3.org/1999/02/22-rdf-syntax-ns#">
   <cc:Work>
    <dc:type rdf:resource="http://purl.org/dc/dcmitype/StillImage"/>
    <dc:date>2023-07-31T15:58:08.105821</dc:date>
    <dc:format>image/svg+xml</dc:format>
    <dc:creator>
     <cc:Agent>
      <dc:title>Matplotlib v3.6.2, https://matplotlib.org/</dc:title>
     </cc:Agent>
    </dc:creator>
   </cc:Work>
  </rdf:RDF>
 </metadata>
 <defs>
  <style type="text/css">*{stroke-linejoin: round; stroke-linecap: butt}</style>
 </defs>
 <g id="figure_1">
  <g id="patch_1">
   <path d="M 0 441.105837 
L 549.05 441.105837 
L 549.05 0 
L 0 0 
z
" style="fill: #ffffff"/>
  </g>
  <g id="axes_1">
   <g id="patch_2">
    <path d="M 39.65 339.84 
L 541.85 339.84 
L 541.85 7.2 
L 39.65 7.2 
z
" style="fill: #ffffff"/>
   </g>
   <g id="patch_3">
    <path d="M 62.477273 339.84 
L 67.120108 339.84 
L 67.120108 65.464666 
L 62.477273 65.464666 
z
" clip-path="url(#p3c1842d1a3)" style="fill: url(#he5f2069119); stroke: #ffffff; stroke-linejoin: miter"/>
   </g>
   <g id="patch_4">
    <path d="M 93.429507 339.84 
L 98.072342 339.84 
L 98.072342 80.408063 
L 93.429507 80.408063 
z
" clip-path="url(#p3c1842d1a3)" style="fill: url(#he5f2069119); stroke: #ffffff; stroke-linejoin: miter"/>
   </g>
   <g id="patch_5">
    <path d="M 124.381741 339.84 
L 129.024576 339.84 
L 129.024576 234.944648 
L 124.381741 234.944648 
z
" clip-path="url(#p3c1842d1a3)" style="fill: url(#he5f2069119); stroke: #ffffff; stroke-linejoin: miter"/>
   </g>
   <g id="patch_6">
    <path d="M 155.333975 339.84 
L 159.97681 339.84 
L 159.97681 260.822237 
L 155.333975 260.822237 
z
" clip-path="url(#p3c1842d1a3)" style="fill: url(#he5f2069119); stroke: #ffffff; stroke-linejoin: miter"/>
   </g>
   <g id="patch_7">
    <path d="M 186.28621 339.84 
L 190.929045 339.84 
L 190.929045 269.350907 
L 186.28621 269.350907 
z
" clip-path="url(#p3c1842d1a3)" style="fill: url(#he5f2069119); stroke: #ffffff; stroke-linejoin: miter"/>
   </g>
   <g id="patch_8">
    <path d="M 217.238444 339.84 
L 221.881279 339.84 
L 221.881279 284.731671 
L 217.238444 284.731671 
z
" clip-path="url(#p3c1842d1a3)" style="fill: url(#he5f2069119); stroke: #ffffff; stroke-linejoin: miter"/>
   </g>
   <g id="patch_9">
    <path d="M 248.190678 339.84 
L 252.833513 339.84 
L 252.833513 287.574561 
L 248.190678 287.574561 
z
" clip-path="url(#p3c1842d1a3)" style="fill: url(#he5f2069119); stroke: #ffffff; stroke-linejoin: miter"/>
   </g>
   <g id="patch_10">
    <path d="M 279.142912 339.84 
L 283.785747 339.84 
L 283.785747 302.517957 
L 279.142912 302.517957 
z
" clip-path="url(#p3c1842d1a3)" style="fill: url(#he5f2069119); stroke: #ffffff; stroke-linejoin: miter"/>
   </g>
   <g id="patch_11">
    <path d="M 310.095146 339.84 
L 314.737982 339.84 
L 314.737982 306.454266 
L 310.095146 306.454266 
z
" clip-path="url(#p3c1842d1a3)" style="fill: url(#he5f2069119); stroke: #ffffff; stroke-linejoin: miter"/>
   </g>
   <g id="patch_12">
    <path d="M 341.047381 339.84 
L 345.690216 339.84 
L 345.690216 323.657395 
L 341.047381 323.657395 
z
" clip-path="url(#p3c1842d1a3)" style="fill: url(#he5f2069119); stroke: #ffffff; stroke-linejoin: miter"/>
   </g>
   <g id="patch_13">
    <path d="M 371.999615 339.84 
L 376.64245 339.84 
L 376.64245 333.352379 
L 371.999615 333.352379 
z
" clip-path="url(#p3c1842d1a3)" style="fill: url(#he5f2069119); stroke: #ffffff; stroke-linejoin: miter"/>
   </g>
   <g id="patch_14">
    <path d="M 402.951849 339.84 
L 407.594684 339.84 
L 407.594684 337.288688 
L 402.951849 337.288688 
z
" clip-path="url(#p3c1842d1a3)" style="fill: url(#he5f2069119); stroke: #ffffff; stroke-linejoin: miter"/>
   </g>
   <g id="patch_15">
    <path d="M 433.904083 339.84 
L 438.546918 339.84 
L 438.546918 337.94474 
L 433.904083 337.94474 
z
" clip-path="url(#p3c1842d1a3)" style="fill: url(#he5f2069119); stroke: #ffffff; stroke-linejoin: miter"/>
   </g>
   <g id="patch_16">
    <path d="M 464.856317 339.84 
L 469.499153 339.84 
L 469.499153 338.527897 
L 464.856317 338.527897 
z
" clip-path="url(#p3c1842d1a3)" style="fill: url(#he5f2069119); stroke: #ffffff; stroke-linejoin: miter"/>
   </g>
   <g id="patch_17">
    <path d="M 495.808552 339.84 
L 500.451387 339.84 
L 500.451387 339.256843 
L 495.808552 339.256843 
z
" clip-path="url(#p3c1842d1a3)" style="fill: url(#he5f2069119); stroke: #ffffff; stroke-linejoin: miter"/>
   </g>
   <g id="patch_18">
    <path d="M 67.120108 339.84 
L 71.762943 339.84 
L 71.762943 66.120718 
L 67.120108 66.120718 
z
" clip-path="url(#p3c1842d1a3)" style="fill: url(#h8289a16c52); stroke: #ffffff; stroke-linejoin: miter"/>
   </g>
   <g id="patch_19">
    <path d="M 98.072342 339.84 
L 102.715177 339.84 
L 102.715177 72.972812 
L 98.072342 72.972812 
z
" clip-path="url(#p3c1842d1a3)" style="fill: url(#h8289a16c52); stroke: #ffffff; stroke-linejoin: miter"/>
   </g>
   <g id="patch_20">
    <path d="M 129.024576 339.84 
L 133.667411 339.84 
L 133.667411 231.737285 
L 129.024576 231.737285 
z
" clip-path="url(#p3c1842d1a3)" style="fill: url(#h8289a16c52); stroke: #ffffff; stroke-linejoin: miter"/>
   </g>
   <g id="patch_21">
    <path d="M 159.97681 339.84 
L 164.619646 339.84 
L 164.619646 259.218555 
L 159.97681 259.218555 
z
" clip-path="url(#p3c1842d1a3)" style="fill: url(#h8289a16c52); stroke: #ffffff; stroke-linejoin: miter"/>
   </g>
   <g id="patch_22">
    <path d="M 190.929045 339.84 
L 195.57188 339.84 
L 195.57188 270.51722 
L 190.929045 270.51722 
z
" clip-path="url(#p3c1842d1a3)" style="fill: url(#h8289a16c52); stroke: #ffffff; stroke-linejoin: miter"/>
   </g>
   <g id="patch_23">
    <path d="M 221.881279 339.84 
L 226.524114 339.84 
L 226.524114 271.173272 
L 221.881279 271.173272 
z
" clip-path="url(#p3c1842d1a3)" style="fill: url(#h8289a16c52); stroke: #ffffff; stroke-linejoin: miter"/>
   </g>
   <g id="patch_24">
    <path d="M 252.833513 339.84 
L 257.476348 339.84 
L 257.476348 282.763516 
L 252.833513 282.763516 
z
" clip-path="url(#p3c1842d1a3)" style="fill: url(#h8289a16c52); stroke: #ffffff; stroke-linejoin: miter"/>
   </g>
   <g id="patch_25">
    <path d="M 283.785747 339.84 
L 288.428582 339.84 
L 288.428582 307.693474 
L 283.785747 307.693474 
z
" clip-path="url(#p3c1842d1a3)" style="fill: url(#h8289a16c52); stroke: #ffffff; stroke-linejoin: miter"/>
   </g>
   <g id="patch_26">
    <path d="M 314.737982 339.84 
L 319.380817 339.84 
L 319.380817 310.609259 
L 314.737982 310.609259 
z
" clip-path="url(#p3c1842d1a3)" style="fill: url(#h8289a16c52); stroke: #ffffff; stroke-linejoin: miter"/>
   </g>
   <g id="patch_27">
    <path d="M 345.690216 339.84 
L 350.333051 339.84 
L 350.333051 325.115288 
L 345.690216 325.115288 
z
" clip-path="url(#p3c1842d1a3)" style="fill: url(#h8289a16c52); stroke: #ffffff; stroke-linejoin: miter"/>
   </g>
   <g id="patch_28">
    <path d="M 376.64245 339.84 
L 381.285285 339.84 
L 381.285285 332.040276 
L 376.64245 332.040276 
z
" clip-path="url(#p3c1842d1a3)" style="fill: url(#h8289a16c52); stroke: #ffffff; stroke-linejoin: miter"/>
   </g>
   <g id="patch_29">
    <path d="M 407.594684 339.84 
L 412.237519 339.84 
L 412.237519 337.361583 
L 407.594684 337.361583 
z
" clip-path="url(#p3c1842d1a3)" style="fill: url(#h8289a16c52); stroke: #ffffff; stroke-linejoin: miter"/>
   </g>
   <g id="patch_30">
    <path d="M 438.546918 339.84 
L 443.189753 339.84 
L 443.189753 337.726056 
L 438.546918 337.726056 
z
" clip-path="url(#p3c1842d1a3)" style="fill: url(#h8289a16c52); stroke: #ffffff; stroke-linejoin: miter"/>
   </g>
   <g id="patch_31">
    <path d="M 469.499153 339.84 
L 474.141988 339.84 
L 474.141988 338.382108 
L 469.499153 338.382108 
z
" clip-path="url(#p3c1842d1a3)" style="fill: url(#h8289a16c52); stroke: #ffffff; stroke-linejoin: miter"/>
   </g>
   <g id="patch_32">
    <path d="M 500.451387 339.84 
L 505.094222 339.84 
L 505.094222 339.475527 
L 500.451387 339.475527 
z
" clip-path="url(#p3c1842d1a3)" style="fill: url(#h8289a16c52); stroke: #ffffff; stroke-linejoin: miter"/>
   </g>
   <g id="patch_33">
    <path d="M 71.762943 339.84 
L 76.405778 339.84 
L 76.405778 68.817819 
L 71.762943 68.817819 
z
" clip-path="url(#p3c1842d1a3)" style="fill: #8da0cb; stroke: #ffffff; stroke-linejoin: miter"/>
   </g>
   <g id="patch_34">
    <path d="M 102.715177 339.84 
L 107.358012 339.84 
L 107.358012 23.04 
L 102.715177 23.04 
z
" clip-path="url(#p3c1842d1a3)" style="fill: #8da0cb; stroke: #ffffff; stroke-linejoin: miter"/>
   </g>
   <g id="patch_35">
    <path d="M 133.667411 339.84 
L 138.310247 339.84 
L 138.310247 233.924123 
L 133.667411 233.924123 
z
" clip-path="url(#p3c1842d1a3)" style="fill: #8da0cb; stroke: #ffffff; stroke-linejoin: miter"/>
   </g>
   <g id="patch_36">
    <path d="M 164.619646 339.84 
L 169.262481 339.84 
L 169.262481 227.217819 
L 164.619646 227.217819 
z
" clip-path="url(#p3c1842d1a3)" style="fill: #8da0cb; stroke: #ffffff; stroke-linejoin: miter"/>
   </g>
   <g id="patch_37">
    <path d="M 195.57188 339.84 
L 200.214715 339.84 
L 200.214715 229.477552 
L 195.57188 229.477552 
z
" clip-path="url(#p3c1842d1a3)" style="fill: #8da0cb; stroke: #ffffff; stroke-linejoin: miter"/>
   </g>
   <g id="patch_38">
    <path d="M 226.524114 339.84 
L 231.166949 339.84 
L 231.166949 256.885927 
L 226.524114 256.885927 
z
" clip-path="url(#p3c1842d1a3)" style="fill: #8da0cb; stroke: #ffffff; stroke-linejoin: miter"/>
   </g>
   <g id="patch_39">
    <path d="M 257.476348 339.84 
L 262.119183 339.84 
L 262.119183 272.485375 
L 257.476348 272.485375 
z
" clip-path="url(#p3c1842d1a3)" style="fill: #8da0cb; stroke: #ffffff; stroke-linejoin: miter"/>
   </g>
   <g id="patch_40">
    <path d="M 288.428582 339.84 
L 293.071418 339.84 
L 293.071418 290.927713 
L 288.428582 290.927713 
z
" clip-path="url(#p3c1842d1a3)" style="fill: #8da0cb; stroke: #ffffff; stroke-linejoin: miter"/>
   </g>
   <g id="patch_41">
    <path d="M 319.380817 339.84 
L 324.023652 339.84 
L 324.023652 300.476908 
L 319.380817 300.476908 
z
" clip-path="url(#p3c1842d1a3)" style="fill: #8da0cb; stroke: #ffffff; stroke-linejoin: miter"/>
   </g>
   <g id="patch_42">
    <path d="M 350.333051 339.84 
L 354.975886 339.84 
L 354.975886 323.365817 
L 350.333051 323.365817 
z
" clip-path="url(#p3c1842d1a3)" style="fill: #8da0cb; stroke: #ffffff; stroke-linejoin: miter"/>
   </g>
   <g id="patch_43">
    <path d="M 381.285285 339.84 
L 385.92812 339.84 
L 385.92812 329.197386 
L 381.285285 329.197386 
z
" clip-path="url(#p3c1842d1a3)" style="fill: #8da0cb; stroke: #ffffff; stroke-linejoin: miter"/>
   </g>
   <g id="patch_44">
    <path d="M 412.237519 339.84 
L 416.880354 339.84 
L 416.880354 338.309213 
L 412.237519 338.309213 
z
" clip-path="url(#p3c1842d1a3)" style="fill: #8da0cb; stroke: #ffffff; stroke-linejoin: miter"/>
   </g>
   <g id="patch_45">
    <path d="M 443.189753 339.84 
L 447.832589 339.84 
L 447.832589 335.903691 
L 443.189753 335.903691 
z
" clip-path="url(#p3c1842d1a3)" style="fill: #8da0cb; stroke: #ffffff; stroke-linejoin: miter"/>
   </g>
   <g id="patch_46">
    <path d="M 474.141988 339.84 
L 478.784823 339.84 
L 478.784823 339.038159 
L 474.141988 339.038159 
z
" clip-path="url(#p3c1842d1a3)" style="fill: #8da0cb; stroke: #ffffff; stroke-linejoin: miter"/>
   </g>
   <g id="patch_47">
    <path d="M 505.094222 339.84 
L 509.737057 339.84 
L 509.737057 337.798951 
L 505.094222 337.798951 
z
" clip-path="url(#p3c1842d1a3)" style="fill: #8da0cb; stroke: #ffffff; stroke-linejoin: miter"/>
   </g>
   <g id="patch_48">
    <path d="M 76.405778 339.84 
L 81.048613 339.84 
L 81.048613 68.307556 
L 76.405778 68.307556 
z
" clip-path="url(#p3c1842d1a3)" style="fill: #e78ac3; stroke: #ffffff; stroke-linejoin: miter"/>
   </g>
   <g id="patch_49">
    <path d="M 107.358012 339.84 
L 112.000847 339.84 
L 112.000847 25.372628 
L 107.358012 25.372628 
z
" clip-path="url(#p3c1842d1a3)" style="fill: #e78ac3; stroke: #ffffff; stroke-linejoin: miter"/>
   </g>
   <g id="patch_50">
    <path d="M 138.310247 339.84 
L 142.953082 339.84 
L 142.953082 196.747869 
L 138.310247 196.747869 
z
" clip-path="url(#p3c1842d1a3)" style="fill: #e78ac3; stroke: #ffffff; stroke-linejoin: miter"/>
   </g>
   <g id="patch_51">
    <path d="M 169.262481 339.84 
L 173.905316 339.84 
L 173.905316 244.639632 
L 169.262481 244.639632 
z
" clip-path="url(#p3c1842d1a3)" style="fill: #e78ac3; stroke: #ffffff; stroke-linejoin: miter"/>
   </g>
   <g id="patch_52">
    <path d="M 200.214715 339.84 
L 204.85755 339.84 
L 204.85755 247.628311 
L 200.214715 247.628311 
z
" clip-path="url(#p3c1842d1a3)" style="fill: #e78ac3; stroke: #ffffff; stroke-linejoin: miter"/>
   </g>
   <g id="patch_53">
    <path d="M 231.166949 339.84 
L 235.809784 339.84 
L 235.809784 303.902954 
L 231.166949 303.902954 
z
" clip-path="url(#p3c1842d1a3)" style="fill: #e78ac3; stroke: #ffffff; stroke-linejoin: miter"/>
   </g>
   <g id="patch_54">
    <path d="M 262.119183 339.84 
L 266.762018 339.84 
L 266.762018 266.435122 
L 262.119183 266.435122 
z
" clip-path="url(#p3c1842d1a3)" style="fill: #e78ac3; stroke: #ffffff; stroke-linejoin: miter"/>
   </g>
   <g id="patch_55">
    <path d="M 293.071418 339.84 
L 297.714253 339.84 
L 297.714253 297.488228 
L 293.071418 297.488228 
z
" clip-path="url(#p3c1842d1a3)" style="fill: #e78ac3; stroke: #ffffff; stroke-linejoin: miter"/>
   </g>
   <g id="patch_56">
    <path d="M 324.023652 339.84 
L 328.666487 339.84 
L 328.666487 304.923479 
L 324.023652 304.923479 
z
" clip-path="url(#p3c1842d1a3)" style="fill: #e78ac3; stroke: #ffffff; stroke-linejoin: miter"/>
   </g>
   <g id="patch_57">
    <path d="M 354.975886 339.84 
L 359.618721 339.84 
L 359.618721 313.160571 
L 354.975886 313.160571 
z
" clip-path="url(#p3c1842d1a3)" style="fill: #e78ac3; stroke: #ffffff; stroke-linejoin: miter"/>
   </g>
   <g id="patch_58">
    <path d="M 385.92812 339.84 
L 390.570955 339.84 
L 390.570955 329.780543 
L 385.92812 329.780543 
z
" clip-path="url(#p3c1842d1a3)" style="fill: #e78ac3; stroke: #ffffff; stroke-linejoin: miter"/>
   </g>
   <g id="patch_59">
    <path d="M 416.880354 339.84 
L 421.52319 339.84 
L 421.52319 336.778426 
L 416.880354 336.778426 
z
" clip-path="url(#p3c1842d1a3)" style="fill: #e78ac3; stroke: #ffffff; stroke-linejoin: miter"/>
   </g>
   <g id="patch_60">
    <path d="M 447.832589 339.84 
L 452.475424 339.84 
L 452.475424 337.434478 
L 447.832589 337.434478 
z
" clip-path="url(#p3c1842d1a3)" style="fill: #e78ac3; stroke: #ffffff; stroke-linejoin: miter"/>
   </g>
   <g id="patch_61">
    <path d="M 478.784823 339.84 
L 483.427658 339.84 
L 483.427658 338.455002 
L 478.784823 338.455002 
z
" clip-path="url(#p3c1842d1a3)" style="fill: #e78ac3; stroke: #ffffff; stroke-linejoin: miter"/>
   </g>
   <g id="patch_62">
    <path d="M 509.737057 339.84 
L 514.379892 339.84 
L 514.379892 339.256843 
L 509.737057 339.256843 
z
" clip-path="url(#p3c1842d1a3)" style="fill: #e78ac3; stroke: #ffffff; stroke-linejoin: miter"/>
   </g>
   <g id="patch_63">
    <path d="M 81.048613 339.84 
L 85.691448 339.84 
L 85.691448 99.360663 
L 81.048613 99.360663 
z
" clip-path="url(#p3c1842d1a3)" style="fill: #a6d854; stroke: #ffffff; stroke-linejoin: miter"/>
   </g>
   <g id="patch_64">
    <path d="M 112.000847 339.84 
L 116.643683 339.84 
L 116.643683 100.818555 
L 112.000847 100.818555 
z
" clip-path="url(#p3c1842d1a3)" style="fill: #a6d854; stroke: #ffffff; stroke-linejoin: miter"/>
   </g>
   <g id="patch_65">
    <path d="M 142.953082 339.84 
L 147.595917 339.84 
L 147.595917 244.348053 
L 142.953082 244.348053 
z
" clip-path="url(#p3c1842d1a3)" style="fill: #a6d854; stroke: #ffffff; stroke-linejoin: miter"/>
   </g>
   <g id="patch_66">
    <path d="M 173.905316 339.84 
L 178.548151 339.84 
L 178.548151 231.299917 
L 173.905316 231.299917 
z
" clip-path="url(#p3c1842d1a3)" style="fill: #a6d854; stroke: #ffffff; stroke-linejoin: miter"/>
   </g>
   <g id="patch_67">
    <path d="M 204.85755 339.84 
L 209.500385 339.84 
L 209.500385 217.012572 
L 204.85755 217.012572 
z
" clip-path="url(#p3c1842d1a3)" style="fill: #a6d854; stroke: #ffffff; stroke-linejoin: miter"/>
   </g>
   <g id="patch_68">
    <path d="M 235.809784 339.84 
L 240.452619 339.84 
L 240.452619 309.297156 
L 235.809784 309.297156 
z
" clip-path="url(#p3c1842d1a3)" style="fill: #a6d854; stroke: #ffffff; stroke-linejoin: miter"/>
   </g>
   <g id="patch_69">
    <path d="M 266.762018 339.84 
L 271.404854 339.84 
L 271.404854 288.959558 
L 266.762018 288.959558 
z
" clip-path="url(#p3c1842d1a3)" style="fill: #a6d854; stroke: #ffffff; stroke-linejoin: miter"/>
   </g>
   <g id="patch_70">
    <path d="M 297.714253 339.84 
L 302.357088 339.84 
L 302.357088 298.727437 
L 297.714253 298.727437 
z
" clip-path="url(#p3c1842d1a3)" style="fill: #a6d854; stroke: #ffffff; stroke-linejoin: miter"/>
   </g>
   <g id="patch_71">
    <path d="M 328.666487 339.84 
L 333.309322 339.84 
L 333.309322 311.4111 
L 328.666487 311.4111 
z
" clip-path="url(#p3c1842d1a3)" style="fill: #a6d854; stroke: #ffffff; stroke-linejoin: miter"/>
   </g>
   <g id="patch_72">
    <path d="M 359.618721 339.84 
L 364.261556 339.84 
L 364.261556 312.723203 
L 359.618721 312.723203 
z
" clip-path="url(#p3c1842d1a3)" style="fill: #a6d854; stroke: #ffffff; stroke-linejoin: miter"/>
   </g>
   <g id="patch_73">
    <path d="M 390.570955 339.84 
L 395.21379 339.84 
L 395.21379 329.999227 
L 390.570955 329.999227 
z
" clip-path="url(#p3c1842d1a3)" style="fill: #a6d854; stroke: #ffffff; stroke-linejoin: miter"/>
   </g>
   <g id="patch_74">
    <path d="M 421.52319 339.84 
L 426.166025 339.84 
L 426.166025 334.664482 
L 421.52319 334.664482 
z
" clip-path="url(#p3c1842d1a3)" style="fill: #a6d854; stroke: #ffffff; stroke-linejoin: miter"/>
   </g>
   <g id="patch_75">
    <path d="M 452.475424 339.84 
L 457.118259 339.84 
L 457.118259 335.10185 
L 452.475424 335.10185 
z
" clip-path="url(#p3c1842d1a3)" style="fill: #a6d854; stroke: #ffffff; stroke-linejoin: miter"/>
   </g>
   <g id="patch_76">
    <path d="M 483.427658 339.84 
L 488.070493 339.84 
L 488.070493 338.382108 
L 483.427658 338.382108 
z
" clip-path="url(#p3c1842d1a3)" style="fill: #a6d854; stroke: #ffffff; stroke-linejoin: miter"/>
   </g>
   <g id="patch_77">
    <path d="M 514.379892 339.84 
L 519.022727 339.84 
L 519.022727 338.89237 
L 514.379892 338.89237 
z
" clip-path="url(#p3c1842d1a3)" style="fill: #a6d854; stroke: #ffffff; stroke-linejoin: miter"/>
   </g>
   <g id="matplotlib.axis_1">
    <g id="xtick_1">
     <g id="line2d_1">
      <defs>
       <path id="ma8c1a1d587" d="M 0 0 
L 0 3.5 
" style="stroke: #000000; stroke-width: 0.8"/>
      </defs>
      <g>
       <use xlink:href="#ma8c1a1d587" x="69.441525" y="339.84" style="stroke: #000000; stroke-width: 0.8"/>
      </g>
     </g>
     <g id="text_1">
      <!-- Function Call -->
      <g transform="translate(48.632699 397.732906) rotate(-45) scale(0.1 -0.1)">
       <defs>
        <path id="DejaVuSans-46" d="M 628 4666 
L 3309 4666 
L 3309 4134 
L 1259 4134 
L 1259 2759 
L 3109 2759 
L 3109 2228 
L 1259 2228 
L 1259 0 
L 628 0 
L 628 4666 
z
" transform="scale(0.015625)"/>
        <path id="DejaVuSans-75" d="M 544 1381 
L 544 3500 
L 1119 3500 
L 1119 1403 
Q 1119 906 1312 657 
Q 1506 409 1894 409 
Q 2359 409 2629 706 
Q 2900 1003 2900 1516 
L 2900 3500 
L 3475 3500 
L 3475 0 
L 2900 0 
L 2900 538 
Q 2691 219 2414 64 
Q 2138 -91 1772 -91 
Q 1169 -91 856 284 
Q 544 659 544 1381 
z
M 1991 3584 
L 1991 3584 
z
" transform="scale(0.015625)"/>
        <path id="DejaVuSans-6e" d="M 3513 2113 
L 3513 0 
L 2938 0 
L 2938 2094 
Q 2938 2591 2744 2837 
Q 2550 3084 2163 3084 
Q 1697 3084 1428 2787 
Q 1159 2491 1159 1978 
L 1159 0 
L 581 0 
L 581 3500 
L 1159 3500 
L 1159 2956 
Q 1366 3272 1645 3428 
Q 1925 3584 2291 3584 
Q 2894 3584 3203 3211 
Q 3513 2838 3513 2113 
z
" transform="scale(0.015625)"/>
        <path id="DejaVuSans-63" d="M 3122 3366 
L 3122 2828 
Q 2878 2963 2633 3030 
Q 2388 3097 2138 3097 
Q 1578 3097 1268 2742 
Q 959 2388 959 1747 
Q 959 1106 1268 751 
Q 1578 397 2138 397 
Q 2388 397 2633 464 
Q 2878 531 3122 666 
L 3122 134 
Q 2881 22 2623 -34 
Q 2366 -91 2075 -91 
Q 1284 -91 818 406 
Q 353 903 353 1747 
Q 353 2603 823 3093 
Q 1294 3584 2113 3584 
Q 2378 3584 2631 3529 
Q 2884 3475 3122 3366 
z
" transform="scale(0.015625)"/>
        <path id="DejaVuSans-74" d="M 1172 4494 
L 1172 3500 
L 2356 3500 
L 2356 3053 
L 1172 3053 
L 1172 1153 
Q 1172 725 1289 603 
Q 1406 481 1766 481 
L 2356 481 
L 2356 0 
L 1766 0 
Q 1100 0 847 248 
Q 594 497 594 1153 
L 594 3053 
L 172 3053 
L 172 3500 
L 594 3500 
L 594 4494 
L 1172 4494 
z
" transform="scale(0.015625)"/>
        <path id="DejaVuSans-69" d="M 603 3500 
L 1178 3500 
L 1178 0 
L 603 0 
L 603 3500 
z
M 603 4863 
L 1178 4863 
L 1178 4134 
L 603 4134 
L 603 4863 
z
" transform="scale(0.015625)"/>
        <path id="DejaVuSans-6f" d="M 1959 3097 
Q 1497 3097 1228 2736 
Q 959 2375 959 1747 
Q 959 1119 1226 758 
Q 1494 397 1959 397 
Q 2419 397 2687 759 
Q 2956 1122 2956 1747 
Q 2956 2369 2687 2733 
Q 2419 3097 1959 3097 
z
M 1959 3584 
Q 2709 3584 3137 3096 
Q 3566 2609 3566 1747 
Q 3566 888 3137 398 
Q 2709 -91 1959 -91 
Q 1206 -91 779 398 
Q 353 888 353 1747 
Q 353 2609 779 3096 
Q 1206 3584 1959 3584 
z
" transform="scale(0.015625)"/>
        <path id="DejaVuSans-20" transform="scale(0.015625)"/>
        <path id="DejaVuSans-43" d="M 4122 4306 
L 4122 3641 
Q 3803 3938 3442 4084 
Q 3081 4231 2675 4231 
Q 1875 4231 1450 3742 
Q 1025 3253 1025 2328 
Q 1025 1406 1450 917 
Q 1875 428 2675 428 
Q 3081 428 3442 575 
Q 3803 722 4122 1019 
L 4122 359 
Q 3791 134 3420 21 
Q 3050 -91 2638 -91 
Q 1578 -91 968 557 
Q 359 1206 359 2328 
Q 359 3453 968 4101 
Q 1578 4750 2638 4750 
Q 3056 4750 3426 4639 
Q 3797 4528 4122 4306 
z
" transform="scale(0.015625)"/>
        <path id="DejaVuSans-61" d="M 2194 1759 
Q 1497 1759 1228 1600 
Q 959 1441 959 1056 
Q 959 750 1161 570 
Q 1363 391 1709 391 
Q 2188 391 2477 730 
Q 2766 1069 2766 1631 
L 2766 1759 
L 2194 1759 
z
M 3341 1997 
L 3341 0 
L 2766 0 
L 2766 531 
Q 2569 213 2275 61 
Q 1981 -91 1556 -91 
Q 1019 -91 701 211 
Q 384 513 384 1019 
Q 384 1609 779 1909 
Q 1175 2209 1959 2209 
L 2766 2209 
L 2766 2266 
Q 2766 2663 2505 2880 
Q 2244 3097 1772 3097 
Q 1472 3097 1187 3025 
Q 903 2953 641 2809 
L 641 3341 
Q 956 3463 1253 3523 
Q 1550 3584 1831 3584 
Q 2591 3584 2966 3190 
Q 3341 2797 3341 1997 
z
" transform="scale(0.015625)"/>
        <path id="DejaVuSans-6c" d="M 603 4863 
L 1178 4863 
L 1178 0 
L 603 0 
L 603 4863 
z
" transform="scale(0.015625)"/>
       </defs>
       <use xlink:href="#DejaVuSans-46"/>
       <use xlink:href="#DejaVuSans-75" x="52.019531"/>
       <use xlink:href="#DejaVuSans-6e" x="115.398438"/>
       <use xlink:href="#DejaVuSans-63" x="178.777344"/>
       <use xlink:href="#DejaVuSans-74" x="233.757812"/>
       <use xlink:href="#DejaVuSans-69" x="272.966797"/>
       <use xlink:href="#DejaVuSans-6f" x="300.75"/>
       <use xlink:href="#DejaVuSans-6e" x="361.931641"/>
       <use xlink:href="#DejaVuSans-20" x="425.310547"/>
       <use xlink:href="#DejaVuSans-43" x="457.097656"/>
       <use xlink:href="#DejaVuSans-61" x="526.921875"/>
       <use xlink:href="#DejaVuSans-6c" x="588.201172"/>
       <use xlink:href="#DejaVuSans-6c" x="615.984375"/>
      </g>
     </g>
    </g>
    <g id="xtick_2">
     <g id="line2d_2">
      <g>
       <use xlink:href="#ma8c1a1d587" x="100.39376" y="339.84" style="stroke: #000000; stroke-width: 0.8"/>
      </g>
     </g>
     <g id="text_2">
      <!-- Field Expression -->
      <g transform="translate(73.869521 409.163729) rotate(-45) scale(0.1 -0.1)">
       <defs>
        <path id="DejaVuSans-65" d="M 3597 1894 
L 3597 1613 
L 953 1613 
Q 991 1019 1311 708 
Q 1631 397 2203 397 
Q 2534 397 2845 478 
Q 3156 559 3463 722 
L 3463 178 
Q 3153 47 2828 -22 
Q 2503 -91 2169 -91 
Q 1331 -91 842 396 
Q 353 884 353 1716 
Q 353 2575 817 3079 
Q 1281 3584 2069 3584 
Q 2775 3584 3186 3129 
Q 3597 2675 3597 1894 
z
M 3022 2063 
Q 3016 2534 2758 2815 
Q 2500 3097 2075 3097 
Q 1594 3097 1305 2825 
Q 1016 2553 972 2059 
L 3022 2063 
z
" transform="scale(0.015625)"/>
        <path id="DejaVuSans-64" d="M 2906 2969 
L 2906 4863 
L 3481 4863 
L 3481 0 
L 2906 0 
L 2906 525 
Q 2725 213 2448 61 
Q 2172 -91 1784 -91 
Q 1150 -91 751 415 
Q 353 922 353 1747 
Q 353 2572 751 3078 
Q 1150 3584 1784 3584 
Q 2172 3584 2448 3432 
Q 2725 3281 2906 2969 
z
M 947 1747 
Q 947 1113 1208 752 
Q 1469 391 1925 391 
Q 2381 391 2643 752 
Q 2906 1113 2906 1747 
Q 2906 2381 2643 2742 
Q 2381 3103 1925 3103 
Q 1469 3103 1208 2742 
Q 947 2381 947 1747 
z
" transform="scale(0.015625)"/>
        <path id="DejaVuSans-45" d="M 628 4666 
L 3578 4666 
L 3578 4134 
L 1259 4134 
L 1259 2753 
L 3481 2753 
L 3481 2222 
L 1259 2222 
L 1259 531 
L 3634 531 
L 3634 0 
L 628 0 
L 628 4666 
z
" transform="scale(0.015625)"/>
        <path id="DejaVuSans-78" d="M 3513 3500 
L 2247 1797 
L 3578 0 
L 2900 0 
L 1881 1375 
L 863 0 
L 184 0 
L 1544 1831 
L 300 3500 
L 978 3500 
L 1906 2253 
L 2834 3500 
L 3513 3500 
z
" transform="scale(0.015625)"/>
        <path id="DejaVuSans-70" d="M 1159 525 
L 1159 -1331 
L 581 -1331 
L 581 3500 
L 1159 3500 
L 1159 2969 
Q 1341 3281 1617 3432 
Q 1894 3584 2278 3584 
Q 2916 3584 3314 3078 
Q 3713 2572 3713 1747 
Q 3713 922 3314 415 
Q 2916 -91 2278 -91 
Q 1894 -91 1617 61 
Q 1341 213 1159 525 
z
M 3116 1747 
Q 3116 2381 2855 2742 
Q 2594 3103 2138 3103 
Q 1681 3103 1420 2742 
Q 1159 2381 1159 1747 
Q 1159 1113 1420 752 
Q 1681 391 2138 391 
Q 2594 391 2855 752 
Q 3116 1113 3116 1747 
z
" transform="scale(0.015625)"/>
        <path id="DejaVuSans-72" d="M 2631 2963 
Q 2534 3019 2420 3045 
Q 2306 3072 2169 3072 
Q 1681 3072 1420 2755 
Q 1159 2438 1159 1844 
L 1159 0 
L 581 0 
L 581 3500 
L 1159 3500 
L 1159 2956 
Q 1341 3275 1631 3429 
Q 1922 3584 2338 3584 
Q 2397 3584 2469 3576 
Q 2541 3569 2628 3553 
L 2631 2963 
z
" transform="scale(0.015625)"/>
        <path id="DejaVuSans-73" d="M 2834 3397 
L 2834 2853 
Q 2591 2978 2328 3040 
Q 2066 3103 1784 3103 
Q 1356 3103 1142 2972 
Q 928 2841 928 2578 
Q 928 2378 1081 2264 
Q 1234 2150 1697 2047 
L 1894 2003 
Q 2506 1872 2764 1633 
Q 3022 1394 3022 966 
Q 3022 478 2636 193 
Q 2250 -91 1575 -91 
Q 1294 -91 989 -36 
Q 684 19 347 128 
L 347 722 
Q 666 556 975 473 
Q 1284 391 1588 391 
Q 1994 391 2212 530 
Q 2431 669 2431 922 
Q 2431 1156 2273 1281 
Q 2116 1406 1581 1522 
L 1381 1569 
Q 847 1681 609 1914 
Q 372 2147 372 2553 
Q 372 3047 722 3315 
Q 1072 3584 1716 3584 
Q 2034 3584 2315 3537 
Q 2597 3491 2834 3397 
z
" transform="scale(0.015625)"/>
       </defs>
       <use xlink:href="#DejaVuSans-46"/>
       <use xlink:href="#DejaVuSans-69" x="50.269531"/>
       <use xlink:href="#DejaVuSans-65" x="78.052734"/>
       <use xlink:href="#DejaVuSans-6c" x="139.576172"/>
       <use xlink:href="#DejaVuSans-64" x="167.359375"/>
       <use xlink:href="#DejaVuSans-20" x="230.835938"/>
       <use xlink:href="#DejaVuSans-45" x="262.623047"/>
       <use xlink:href="#DejaVuSans-78" x="325.806641"/>
       <use xlink:href="#DejaVuSans-70" x="384.986328"/>
       <use xlink:href="#DejaVuSans-72" x="448.462891"/>
       <use xlink:href="#DejaVuSans-65" x="487.326172"/>
       <use xlink:href="#DejaVuSans-73" x="548.849609"/>
       <use xlink:href="#DejaVuSans-73" x="600.949219"/>
       <use xlink:href="#DejaVuSans-69" x="653.048828"/>
       <use xlink:href="#DejaVuSans-6f" x="680.832031"/>
       <use xlink:href="#DejaVuSans-6e" x="742.013672"/>
      </g>
     </g>
    </g>
    <g id="xtick_3">
     <g id="line2d_3">
      <g>
       <use xlink:href="#ma8c1a1d587" x="131.345994" y="339.84" style="stroke: #000000; stroke-width: 0.8"/>
      </g>
     </g>
     <g id="text_3">
      <!-- Assignment Operation -->
      <g transform="translate(93.762716 431.281808) rotate(-45) scale(0.1 -0.1)">
       <defs>
        <path id="DejaVuSans-41" d="M 2188 4044 
L 1331 1722 
L 3047 1722 
L 2188 4044 
z
M 1831 4666 
L 2547 4666 
L 4325 0 
L 3669 0 
L 3244 1197 
L 1141 1197 
L 716 0 
L 50 0 
L 1831 4666 
z
" transform="scale(0.015625)"/>
        <path id="DejaVuSans-67" d="M 2906 1791 
Q 2906 2416 2648 2759 
Q 2391 3103 1925 3103 
Q 1463 3103 1205 2759 
Q 947 2416 947 1791 
Q 947 1169 1205 825 
Q 1463 481 1925 481 
Q 2391 481 2648 825 
Q 2906 1169 2906 1791 
z
M 3481 434 
Q 3481 -459 3084 -895 
Q 2688 -1331 1869 -1331 
Q 1566 -1331 1297 -1286 
Q 1028 -1241 775 -1147 
L 775 -588 
Q 1028 -725 1275 -790 
Q 1522 -856 1778 -856 
Q 2344 -856 2625 -561 
Q 2906 -266 2906 331 
L 2906 616 
Q 2728 306 2450 153 
Q 2172 0 1784 0 
Q 1141 0 747 490 
Q 353 981 353 1791 
Q 353 2603 747 3093 
Q 1141 3584 1784 3584 
Q 2172 3584 2450 3431 
Q 2728 3278 2906 2969 
L 2906 3500 
L 3481 3500 
L 3481 434 
z
" transform="scale(0.015625)"/>
        <path id="DejaVuSans-6d" d="M 3328 2828 
Q 3544 3216 3844 3400 
Q 4144 3584 4550 3584 
Q 5097 3584 5394 3201 
Q 5691 2819 5691 2113 
L 5691 0 
L 5113 0 
L 5113 2094 
Q 5113 2597 4934 2840 
Q 4756 3084 4391 3084 
Q 3944 3084 3684 2787 
Q 3425 2491 3425 1978 
L 3425 0 
L 2847 0 
L 2847 2094 
Q 2847 2600 2669 2842 
Q 2491 3084 2119 3084 
Q 1678 3084 1418 2786 
Q 1159 2488 1159 1978 
L 1159 0 
L 581 0 
L 581 3500 
L 1159 3500 
L 1159 2956 
Q 1356 3278 1631 3431 
Q 1906 3584 2284 3584 
Q 2666 3584 2933 3390 
Q 3200 3197 3328 2828 
z
" transform="scale(0.015625)"/>
        <path id="DejaVuSans-4f" d="M 2522 4238 
Q 1834 4238 1429 3725 
Q 1025 3213 1025 2328 
Q 1025 1447 1429 934 
Q 1834 422 2522 422 
Q 3209 422 3611 934 
Q 4013 1447 4013 2328 
Q 4013 3213 3611 3725 
Q 3209 4238 2522 4238 
z
M 2522 4750 
Q 3503 4750 4090 4092 
Q 4678 3434 4678 2328 
Q 4678 1225 4090 567 
Q 3503 -91 2522 -91 
Q 1538 -91 948 565 
Q 359 1222 359 2328 
Q 359 3434 948 4092 
Q 1538 4750 2522 4750 
z
" transform="scale(0.015625)"/>
       </defs>
       <use xlink:href="#DejaVuSans-41"/>
       <use xlink:href="#DejaVuSans-73" x="68.408203"/>
       <use xlink:href="#DejaVuSans-73" x="120.507812"/>
       <use xlink:href="#DejaVuSans-69" x="172.607422"/>
       <use xlink:href="#DejaVuSans-67" x="200.390625"/>
       <use xlink:href="#DejaVuSans-6e" x="263.867188"/>
       <use xlink:href="#DejaVuSans-6d" x="327.246094"/>
       <use xlink:href="#DejaVuSans-65" x="424.658203"/>
       <use xlink:href="#DejaVuSans-6e" x="486.181641"/>
       <use xlink:href="#DejaVuSans-74" x="549.560547"/>
       <use xlink:href="#DejaVuSans-20" x="588.769531"/>
       <use xlink:href="#DejaVuSans-4f" x="620.556641"/>
       <use xlink:href="#DejaVuSans-70" x="699.267578"/>
       <use xlink:href="#DejaVuSans-65" x="762.744141"/>
       <use xlink:href="#DejaVuSans-72" x="824.267578"/>
       <use xlink:href="#DejaVuSans-61" x="865.380859"/>
       <use xlink:href="#DejaVuSans-74" x="926.660156"/>
       <use xlink:href="#DejaVuSans-69" x="965.869141"/>
       <use xlink:href="#DejaVuSans-6f" x="993.652344"/>
       <use xlink:href="#DejaVuSans-6e" x="1054.833984"/>
      </g>
     </g>
    </g>
    <g id="xtick_4">
     <g id="line2d_4">
      <g>
       <use xlink:href="#ma8c1a1d587" x="162.298228" y="339.84" style="stroke: #000000; stroke-width: 0.8"/>
      </g>
     </g>
     <g id="text_4">
      <!-- Relational Operation -->
      <g transform="translate(127.987529 424.736651) rotate(-45) scale(0.1 -0.1)">
       <defs>
        <path id="DejaVuSans-52" d="M 2841 2188 
Q 3044 2119 3236 1894 
Q 3428 1669 3622 1275 
L 4263 0 
L 3584 0 
L 2988 1197 
Q 2756 1666 2539 1819 
Q 2322 1972 1947 1972 
L 1259 1972 
L 1259 0 
L 628 0 
L 628 4666 
L 2053 4666 
Q 2853 4666 3247 4331 
Q 3641 3997 3641 3322 
Q 3641 2881 3436 2590 
Q 3231 2300 2841 2188 
z
M 1259 4147 
L 1259 2491 
L 2053 2491 
Q 2509 2491 2742 2702 
Q 2975 2913 2975 3322 
Q 2975 3731 2742 3939 
Q 2509 4147 2053 4147 
L 1259 4147 
z
" transform="scale(0.015625)"/>
       </defs>
       <use xlink:href="#DejaVuSans-52"/>
       <use xlink:href="#DejaVuSans-65" x="64.982422"/>
       <use xlink:href="#DejaVuSans-6c" x="126.505859"/>
       <use xlink:href="#DejaVuSans-61" x="154.289062"/>
       <use xlink:href="#DejaVuSans-74" x="215.568359"/>
       <use xlink:href="#DejaVuSans-69" x="254.777344"/>
       <use xlink:href="#DejaVuSans-6f" x="282.560547"/>
       <use xlink:href="#DejaVuSans-6e" x="343.742188"/>
       <use xlink:href="#DejaVuSans-61" x="407.121094"/>
       <use xlink:href="#DejaVuSans-6c" x="468.400391"/>
       <use xlink:href="#DejaVuSans-20" x="496.183594"/>
       <use xlink:href="#DejaVuSans-4f" x="527.970703"/>
       <use xlink:href="#DejaVuSans-70" x="606.681641"/>
       <use xlink:href="#DejaVuSans-65" x="670.158203"/>
       <use xlink:href="#DejaVuSans-72" x="731.681641"/>
       <use xlink:href="#DejaVuSans-61" x="772.794922"/>
       <use xlink:href="#DejaVuSans-74" x="834.074219"/>
       <use xlink:href="#DejaVuSans-69" x="873.283203"/>
       <use xlink:href="#DejaVuSans-6f" x="901.066406"/>
       <use xlink:href="#DejaVuSans-6e" x="962.248047"/>
      </g>
     </g>
    </g>
    <g id="xtick_5">
     <g id="line2d_5">
      <g>
       <use xlink:href="#ma8c1a1d587" x="193.250462" y="339.84" style="stroke: #000000; stroke-width: 0.8"/>
      </g>
     </g>
     <g id="text_5">
      <!-- If Statement -->
      <g transform="translate(173.185755 396.244667) rotate(-45) scale(0.1 -0.1)">
       <defs>
        <path id="DejaVuSans-49" d="M 628 4666 
L 1259 4666 
L 1259 0 
L 628 0 
L 628 4666 
z
" transform="scale(0.015625)"/>
        <path id="DejaVuSans-66" d="M 2375 4863 
L 2375 4384 
L 1825 4384 
Q 1516 4384 1395 4259 
Q 1275 4134 1275 3809 
L 1275 3500 
L 2222 3500 
L 2222 3053 
L 1275 3053 
L 1275 0 
L 697 0 
L 697 3053 
L 147 3053 
L 147 3500 
L 697 3500 
L 697 3744 
Q 697 4328 969 4595 
Q 1241 4863 1831 4863 
L 2375 4863 
z
" transform="scale(0.015625)"/>
        <path id="DejaVuSans-53" d="M 3425 4513 
L 3425 3897 
Q 3066 4069 2747 4153 
Q 2428 4238 2131 4238 
Q 1616 4238 1336 4038 
Q 1056 3838 1056 3469 
Q 1056 3159 1242 3001 
Q 1428 2844 1947 2747 
L 2328 2669 
Q 3034 2534 3370 2195 
Q 3706 1856 3706 1288 
Q 3706 609 3251 259 
Q 2797 -91 1919 -91 
Q 1588 -91 1214 -16 
Q 841 59 441 206 
L 441 856 
Q 825 641 1194 531 
Q 1563 422 1919 422 
Q 2459 422 2753 634 
Q 3047 847 3047 1241 
Q 3047 1584 2836 1778 
Q 2625 1972 2144 2069 
L 1759 2144 
Q 1053 2284 737 2584 
Q 422 2884 422 3419 
Q 422 4038 858 4394 
Q 1294 4750 2059 4750 
Q 2388 4750 2728 4690 
Q 3069 4631 3425 4513 
z
" transform="scale(0.015625)"/>
       </defs>
       <use xlink:href="#DejaVuSans-49"/>
       <use xlink:href="#DejaVuSans-66" x="29.492188"/>
       <use xlink:href="#DejaVuSans-20" x="64.697266"/>
       <use xlink:href="#DejaVuSans-53" x="96.484375"/>
       <use xlink:href="#DejaVuSans-74" x="159.960938"/>
       <use xlink:href="#DejaVuSans-61" x="199.169922"/>
       <use xlink:href="#DejaVuSans-74" x="260.449219"/>
       <use xlink:href="#DejaVuSans-65" x="299.658203"/>
       <use xlink:href="#DejaVuSans-6d" x="361.181641"/>
       <use xlink:href="#DejaVuSans-65" x="458.59375"/>
       <use xlink:href="#DejaVuSans-6e" x="520.117188"/>
       <use xlink:href="#DejaVuSans-74" x="583.496094"/>
      </g>
     </g>
    </g>
    <g id="xtick_6">
     <g id="line2d_6">
      <g>
       <use xlink:href="#ma8c1a1d587" x="224.202696" y="339.84" style="stroke: #000000; stroke-width: 0.8"/>
      </g>
     </g>
     <g id="text_6">
      <!-- Declaration Statement -->
      <g transform="translate(186.042685 432.435276) rotate(-45) scale(0.1 -0.1)">
       <defs>
        <path id="DejaVuSans-44" d="M 1259 4147 
L 1259 519 
L 2022 519 
Q 2988 519 3436 956 
Q 3884 1394 3884 2338 
Q 3884 3275 3436 3711 
Q 2988 4147 2022 4147 
L 1259 4147 
z
M 628 4666 
L 1925 4666 
Q 3281 4666 3915 4102 
Q 4550 3538 4550 2338 
Q 4550 1131 3912 565 
Q 3275 0 1925 0 
L 628 0 
L 628 4666 
z
" transform="scale(0.015625)"/>
       </defs>
       <use xlink:href="#DejaVuSans-44"/>
       <use xlink:href="#DejaVuSans-65" x="77.001953"/>
       <use xlink:href="#DejaVuSans-63" x="138.525391"/>
       <use xlink:href="#DejaVuSans-6c" x="193.505859"/>
       <use xlink:href="#DejaVuSans-61" x="221.289062"/>
       <use xlink:href="#DejaVuSans-72" x="282.568359"/>
       <use xlink:href="#DejaVuSans-61" x="323.681641"/>
       <use xlink:href="#DejaVuSans-74" x="384.960938"/>
       <use xlink:href="#DejaVuSans-69" x="424.169922"/>
       <use xlink:href="#DejaVuSans-6f" x="451.953125"/>
       <use xlink:href="#DejaVuSans-6e" x="513.134766"/>
       <use xlink:href="#DejaVuSans-20" x="576.513672"/>
       <use xlink:href="#DejaVuSans-53" x="608.300781"/>
       <use xlink:href="#DejaVuSans-74" x="671.777344"/>
       <use xlink:href="#DejaVuSans-61" x="710.986328"/>
       <use xlink:href="#DejaVuSans-74" x="772.265625"/>
       <use xlink:href="#DejaVuSans-65" x="811.474609"/>
       <use xlink:href="#DejaVuSans-6d" x="872.998047"/>
       <use xlink:href="#DejaVuSans-65" x="970.410156"/>
       <use xlink:href="#DejaVuSans-6e" x="1031.933594"/>
       <use xlink:href="#DejaVuSans-74" x="1095.3125"/>
      </g>
     </g>
    </g>
    <g id="xtick_7">
     <g id="line2d_7">
      <g>
       <use xlink:href="#ma8c1a1d587" x="255.154931" y="339.84" style="stroke: #000000; stroke-width: 0.8"/>
      </g>
     </g>
     <g id="text_7">
      <!-- Arithmetic Operation -->
      <g transform="translate(219.974711 426.475692) rotate(-45) scale(0.1 -0.1)">
       <defs>
        <path id="DejaVuSans-68" d="M 3513 2113 
L 3513 0 
L 2938 0 
L 2938 2094 
Q 2938 2591 2744 2837 
Q 2550 3084 2163 3084 
Q 1697 3084 1428 2787 
Q 1159 2491 1159 1978 
L 1159 0 
L 581 0 
L 581 4863 
L 1159 4863 
L 1159 2956 
Q 1366 3272 1645 3428 
Q 1925 3584 2291 3584 
Q 2894 3584 3203 3211 
Q 3513 2838 3513 2113 
z
" transform="scale(0.015625)"/>
       </defs>
       <use xlink:href="#DejaVuSans-41"/>
       <use xlink:href="#DejaVuSans-72" x="68.408203"/>
       <use xlink:href="#DejaVuSans-69" x="109.521484"/>
       <use xlink:href="#DejaVuSans-74" x="137.304688"/>
       <use xlink:href="#DejaVuSans-68" x="176.513672"/>
       <use xlink:href="#DejaVuSans-6d" x="239.892578"/>
       <use xlink:href="#DejaVuSans-65" x="337.304688"/>
       <use xlink:href="#DejaVuSans-74" x="398.828125"/>
       <use xlink:href="#DejaVuSans-69" x="438.037109"/>
       <use xlink:href="#DejaVuSans-63" x="465.820312"/>
       <use xlink:href="#DejaVuSans-20" x="520.800781"/>
       <use xlink:href="#DejaVuSans-4f" x="552.587891"/>
       <use xlink:href="#DejaVuSans-70" x="631.298828"/>
       <use xlink:href="#DejaVuSans-65" x="694.775391"/>
       <use xlink:href="#DejaVuSans-72" x="756.298828"/>
       <use xlink:href="#DejaVuSans-61" x="797.412109"/>
       <use xlink:href="#DejaVuSans-74" x="858.691406"/>
       <use xlink:href="#DejaVuSans-69" x="897.900391"/>
       <use xlink:href="#DejaVuSans-6f" x="925.683594"/>
       <use xlink:href="#DejaVuSans-6e" x="986.865234"/>
      </g>
     </g>
    </g>
    <g id="xtick_8">
     <g id="line2d_8">
      <g>
       <use xlink:href="#ma8c1a1d587" x="286.107165" y="339.84" style="stroke: #000000; stroke-width: 0.8"/>
      </g>
     </g>
     <g id="text_8">
      <!-- Logical Operation -->
      <g transform="translate(256.948401 414.432779) rotate(-45) scale(0.1 -0.1)">
       <defs>
        <path id="DejaVuSans-4c" d="M 628 4666 
L 1259 4666 
L 1259 531 
L 3531 531 
L 3531 0 
L 628 0 
L 628 4666 
z
" transform="scale(0.015625)"/>
       </defs>
       <use xlink:href="#DejaVuSans-4c"/>
       <use xlink:href="#DejaVuSans-6f" x="53.962891"/>
       <use xlink:href="#DejaVuSans-67" x="115.144531"/>
       <use xlink:href="#DejaVuSans-69" x="178.621094"/>
       <use xlink:href="#DejaVuSans-63" x="206.404297"/>
       <use xlink:href="#DejaVuSans-61" x="261.384766"/>
       <use xlink:href="#DejaVuSans-6c" x="322.664062"/>
       <use xlink:href="#DejaVuSans-20" x="350.447266"/>
       <use xlink:href="#DejaVuSans-4f" x="382.234375"/>
       <use xlink:href="#DejaVuSans-70" x="460.945312"/>
       <use xlink:href="#DejaVuSans-65" x="524.421875"/>
       <use xlink:href="#DejaVuSans-72" x="585.945312"/>
       <use xlink:href="#DejaVuSans-61" x="627.058594"/>
       <use xlink:href="#DejaVuSans-74" x="688.337891"/>
       <use xlink:href="#DejaVuSans-69" x="727.546875"/>
       <use xlink:href="#DejaVuSans-6f" x="755.330078"/>
       <use xlink:href="#DejaVuSans-6e" x="816.511719"/>
      </g>
     </g>
    </g>
    <g id="xtick_9">
     <g id="line2d_9">
      <g>
       <use xlink:href="#ma8c1a1d587" x="317.059399" y="339.84" style="stroke: #000000; stroke-width: 0.8"/>
      </g>
     </g>
     <g id="text_9">
      <!-- Bitwise Operation -->
      <g transform="translate(287.606744 415.020562) rotate(-45) scale(0.1 -0.1)">
       <defs>
        <path id="DejaVuSans-42" d="M 1259 2228 
L 1259 519 
L 2272 519 
Q 2781 519 3026 730 
Q 3272 941 3272 1375 
Q 3272 1813 3026 2020 
Q 2781 2228 2272 2228 
L 1259 2228 
z
M 1259 4147 
L 1259 2741 
L 2194 2741 
Q 2656 2741 2882 2914 
Q 3109 3088 3109 3444 
Q 3109 3797 2882 3972 
Q 2656 4147 2194 4147 
L 1259 4147 
z
M 628 4666 
L 2241 4666 
Q 2963 4666 3353 4366 
Q 3744 4066 3744 3513 
Q 3744 3084 3544 2831 
Q 3344 2578 2956 2516 
Q 3422 2416 3680 2098 
Q 3938 1781 3938 1306 
Q 3938 681 3513 340 
Q 3088 0 2303 0 
L 628 0 
L 628 4666 
z
" transform="scale(0.015625)"/>
        <path id="DejaVuSans-77" d="M 269 3500 
L 844 3500 
L 1563 769 
L 2278 3500 
L 2956 3500 
L 3675 769 
L 4391 3500 
L 4966 3500 
L 4050 0 
L 3372 0 
L 2619 2869 
L 1863 0 
L 1184 0 
L 269 3500 
z
" transform="scale(0.015625)"/>
       </defs>
       <use xlink:href="#DejaVuSans-42"/>
       <use xlink:href="#DejaVuSans-69" x="68.603516"/>
       <use xlink:href="#DejaVuSans-74" x="96.386719"/>
       <use xlink:href="#DejaVuSans-77" x="135.595703"/>
       <use xlink:href="#DejaVuSans-69" x="217.382812"/>
       <use xlink:href="#DejaVuSans-73" x="245.166016"/>
       <use xlink:href="#DejaVuSans-65" x="297.265625"/>
       <use xlink:href="#DejaVuSans-20" x="358.789062"/>
       <use xlink:href="#DejaVuSans-4f" x="390.576172"/>
       <use xlink:href="#DejaVuSans-70" x="469.287109"/>
       <use xlink:href="#DejaVuSans-65" x="532.763672"/>
       <use xlink:href="#DejaVuSans-72" x="594.287109"/>
       <use xlink:href="#DejaVuSans-61" x="635.400391"/>
       <use xlink:href="#DejaVuSans-74" x="696.679688"/>
       <use xlink:href="#DejaVuSans-69" x="735.888672"/>
       <use xlink:href="#DejaVuSans-6f" x="763.671875"/>
       <use xlink:href="#DejaVuSans-6e" x="824.853516"/>
      </g>
     </g>
    </g>
    <g id="xtick_10">
     <g id="line2d_10">
      <g>
       <use xlink:href="#ma8c1a1d587" x="348.011633" y="339.84" style="stroke: #000000; stroke-width: 0.8"/>
      </g>
     </g>
     <g id="text_10">
      <!-- Return Statement -->
      <g transform="translate(318.502631 415.133257) rotate(-45) scale(0.1 -0.1)">
       <use xlink:href="#DejaVuSans-52"/>
       <use xlink:href="#DejaVuSans-65" x="64.982422"/>
       <use xlink:href="#DejaVuSans-74" x="126.505859"/>
       <use xlink:href="#DejaVuSans-75" x="165.714844"/>
       <use xlink:href="#DejaVuSans-72" x="229.09375"/>
       <use xlink:href="#DejaVuSans-6e" x="268.457031"/>
       <use xlink:href="#DejaVuSans-20" x="331.835938"/>
       <use xlink:href="#DejaVuSans-53" x="363.623047"/>
       <use xlink:href="#DejaVuSans-74" x="427.099609"/>
       <use xlink:href="#DejaVuSans-61" x="466.308594"/>
       <use xlink:href="#DejaVuSans-74" x="527.587891"/>
       <use xlink:href="#DejaVuSans-65" x="566.796875"/>
       <use xlink:href="#DejaVuSans-6d" x="628.320312"/>
       <use xlink:href="#DejaVuSans-65" x="725.732422"/>
       <use xlink:href="#DejaVuSans-6e" x="787.255859"/>
       <use xlink:href="#DejaVuSans-74" x="850.634766"/>
      </g>
     </g>
    </g>
    <g id="xtick_11">
     <g id="line2d_11">
      <g>
       <use xlink:href="#ma8c1a1d587" x="378.963867" y="339.84" style="stroke: #000000; stroke-width: 0.8"/>
      </g>
     </g>
     <g id="text_11">
      <!-- For Statement -->
      <g transform="translate(355.664699 402.713589) rotate(-45) scale(0.1 -0.1)">
       <use xlink:href="#DejaVuSans-46"/>
       <use xlink:href="#DejaVuSans-6f" x="53.894531"/>
       <use xlink:href="#DejaVuSans-72" x="115.076172"/>
       <use xlink:href="#DejaVuSans-20" x="156.189453"/>
       <use xlink:href="#DejaVuSans-53" x="187.976562"/>
       <use xlink:href="#DejaVuSans-74" x="251.453125"/>
       <use xlink:href="#DejaVuSans-61" x="290.662109"/>
       <use xlink:href="#DejaVuSans-74" x="351.941406"/>
       <use xlink:href="#DejaVuSans-65" x="391.150391"/>
       <use xlink:href="#DejaVuSans-6d" x="452.673828"/>
       <use xlink:href="#DejaVuSans-65" x="550.085938"/>
       <use xlink:href="#DejaVuSans-6e" x="611.609375"/>
       <use xlink:href="#DejaVuSans-74" x="674.988281"/>
      </g>
     </g>
    </g>
    <g id="xtick_12">
     <g id="line2d_12">
      <g>
       <use xlink:href="#ma8c1a1d587" x="409.916102" y="339.84" style="stroke: #000000; stroke-width: 0.8"/>
      </g>
     </g>
     <g id="text_12">
      <!-- Case Statement -->
      <g transform="translate(383.486328 408.974799) rotate(-45) scale(0.1 -0.1)">
       <use xlink:href="#DejaVuSans-43"/>
       <use xlink:href="#DejaVuSans-61" x="69.824219"/>
       <use xlink:href="#DejaVuSans-73" x="131.103516"/>
       <use xlink:href="#DejaVuSans-65" x="183.203125"/>
       <use xlink:href="#DejaVuSans-20" x="244.726562"/>
       <use xlink:href="#DejaVuSans-53" x="276.513672"/>
       <use xlink:href="#DejaVuSans-74" x="339.990234"/>
       <use xlink:href="#DejaVuSans-61" x="379.199219"/>
       <use xlink:href="#DejaVuSans-74" x="440.478516"/>
       <use xlink:href="#DejaVuSans-65" x="479.6875"/>
       <use xlink:href="#DejaVuSans-6d" x="541.210938"/>
       <use xlink:href="#DejaVuSans-65" x="638.623047"/>
       <use xlink:href="#DejaVuSans-6e" x="700.146484"/>
       <use xlink:href="#DejaVuSans-74" x="763.525391"/>
      </g>
     </g>
    </g>
    <g id="xtick_13">
     <g id="line2d_13">
      <g>
       <use xlink:href="#ma8c1a1d587" x="440.868336" y="339.84" style="stroke: #000000; stroke-width: 0.8"/>
      </g>
     </g>
     <g id="text_13">
      <!-- While Statement -->
      <g transform="translate(413.214936 411.422051) rotate(-45) scale(0.1 -0.1)">
       <defs>
        <path id="DejaVuSans-57" d="M 213 4666 
L 850 4666 
L 1831 722 
L 2809 4666 
L 3519 4666 
L 4500 722 
L 5478 4666 
L 6119 4666 
L 4947 0 
L 4153 0 
L 3169 4050 
L 2175 0 
L 1381 0 
L 213 4666 
z
" transform="scale(0.015625)"/>
       </defs>
       <use xlink:href="#DejaVuSans-57"/>
       <use xlink:href="#DejaVuSans-68" x="98.876953"/>
       <use xlink:href="#DejaVuSans-69" x="162.255859"/>
       <use xlink:href="#DejaVuSans-6c" x="190.039062"/>
       <use xlink:href="#DejaVuSans-65" x="217.822266"/>
       <use xlink:href="#DejaVuSans-20" x="279.345703"/>
       <use xlink:href="#DejaVuSans-53" x="311.132812"/>
       <use xlink:href="#DejaVuSans-74" x="374.609375"/>
       <use xlink:href="#DejaVuSans-61" x="413.818359"/>
       <use xlink:href="#DejaVuSans-74" x="475.097656"/>
       <use xlink:href="#DejaVuSans-65" x="514.306641"/>
       <use xlink:href="#DejaVuSans-6d" x="575.830078"/>
       <use xlink:href="#DejaVuSans-65" x="673.242188"/>
       <use xlink:href="#DejaVuSans-6e" x="734.765625"/>
       <use xlink:href="#DejaVuSans-74" x="798.144531"/>
      </g>
     </g>
    </g>
    <g id="xtick_14">
     <g id="line2d_14">
      <g>
       <use xlink:href="#ma8c1a1d587" x="471.82057" y="339.84" style="stroke: #000000; stroke-width: 0.8"/>
      </g>
     </g>
     <g id="text_14">
      <!-- Jump Statement -->
      <g transform="translate(445.071494 409.613404) rotate(-45) scale(0.1 -0.1)">
       <defs>
        <path id="DejaVuSans-4a" d="M 628 4666 
L 1259 4666 
L 1259 325 
Q 1259 -519 939 -900 
Q 619 -1281 -91 -1281 
L -331 -1281 
L -331 -750 
L -134 -750 
Q 284 -750 456 -515 
Q 628 -281 628 325 
L 628 4666 
z
" transform="scale(0.015625)"/>
       </defs>
       <use xlink:href="#DejaVuSans-4a"/>
       <use xlink:href="#DejaVuSans-75" x="29.492188"/>
       <use xlink:href="#DejaVuSans-6d" x="92.871094"/>
       <use xlink:href="#DejaVuSans-70" x="190.283203"/>
       <use xlink:href="#DejaVuSans-20" x="253.759766"/>
       <use xlink:href="#DejaVuSans-53" x="285.546875"/>
       <use xlink:href="#DejaVuSans-74" x="349.023438"/>
       <use xlink:href="#DejaVuSans-61" x="388.232422"/>
       <use xlink:href="#DejaVuSans-74" x="449.511719"/>
       <use xlink:href="#DejaVuSans-65" x="488.720703"/>
       <use xlink:href="#DejaVuSans-6d" x="550.244141"/>
       <use xlink:href="#DejaVuSans-65" x="647.65625"/>
       <use xlink:href="#DejaVuSans-6e" x="709.179688"/>
       <use xlink:href="#DejaVuSans-74" x="772.558594"/>
      </g>
     </g>
    </g>
    <g id="xtick_15">
     <g id="line2d_15">
      <g>
       <use xlink:href="#ma8c1a1d587" x="502.772804" y="339.84" style="stroke: #000000; stroke-width: 0.8"/>
      </g>
     </g>
     <g id="text_15">
      <!-- Switch Statement -->
      <g transform="translate(473.306891 415.047078) rotate(-45) scale(0.1 -0.1)">
       <use xlink:href="#DejaVuSans-53"/>
       <use xlink:href="#DejaVuSans-77" x="63.476562"/>
       <use xlink:href="#DejaVuSans-69" x="145.263672"/>
       <use xlink:href="#DejaVuSans-74" x="173.046875"/>
       <use xlink:href="#DejaVuSans-63" x="212.255859"/>
       <use xlink:href="#DejaVuSans-68" x="267.236328"/>
       <use xlink:href="#DejaVuSans-20" x="330.615234"/>
       <use xlink:href="#DejaVuSans-53" x="362.402344"/>
       <use xlink:href="#DejaVuSans-74" x="425.878906"/>
       <use xlink:href="#DejaVuSans-61" x="465.087891"/>
       <use xlink:href="#DejaVuSans-74" x="526.367188"/>
       <use xlink:href="#DejaVuSans-65" x="565.576172"/>
       <use xlink:href="#DejaVuSans-6d" x="627.099609"/>
       <use xlink:href="#DejaVuSans-65" x="724.511719"/>
       <use xlink:href="#DejaVuSans-6e" x="786.035156"/>
       <use xlink:href="#DejaVuSans-74" x="849.414062"/>
      </g>
     </g>
    </g>
   </g>
   <g id="matplotlib.axis_2">
    <g id="ytick_1">
     <g id="line2d_16">
      <defs>
       <path id="m8c6ff2f55d" d="M 0 0 
L -3.5 0 
" style="stroke: #000000; stroke-width: 0.8"/>
      </defs>
      <g>
       <use xlink:href="#m8c6ff2f55d" x="39.65" y="339.84" style="stroke: #000000; stroke-width: 0.8"/>
      </g>
     </g>
     <g id="text_16">
      <!-- 0 -->
      <g transform="translate(26.2875 343.639219) scale(0.1 -0.1)">
       <defs>
        <path id="DejaVuSans-30" d="M 2034 4250 
Q 1547 4250 1301 3770 
Q 1056 3291 1056 2328 
Q 1056 1369 1301 889 
Q 1547 409 2034 409 
Q 2525 409 2770 889 
Q 3016 1369 3016 2328 
Q 3016 3291 2770 3770 
Q 2525 4250 2034 4250 
z
M 2034 4750 
Q 2819 4750 3233 4129 
Q 3647 3509 3647 2328 
Q 3647 1150 3233 529 
Q 2819 -91 2034 -91 
Q 1250 -91 836 529 
Q 422 1150 422 2328 
Q 422 3509 836 4129 
Q 1250 4750 2034 4750 
z
" transform="scale(0.015625)"/>
       </defs>
       <use xlink:href="#DejaVuSans-30"/>
      </g>
     </g>
    </g>
    <g id="ytick_2">
     <g id="line2d_17">
      <g>
       <use xlink:href="#m8c6ff2f55d" x="39.65" y="266.945384" style="stroke: #000000; stroke-width: 0.8"/>
      </g>
     </g>
     <g id="text_17">
      <!-- 1000 -->
      <g transform="translate(7.2 270.744603) scale(0.1 -0.1)">
       <defs>
        <path id="DejaVuSans-31" d="M 794 531 
L 1825 531 
L 1825 4091 
L 703 3866 
L 703 4441 
L 1819 4666 
L 2450 4666 
L 2450 531 
L 3481 531 
L 3481 0 
L 794 0 
L 794 531 
z
" transform="scale(0.015625)"/>
       </defs>
       <use xlink:href="#DejaVuSans-31"/>
       <use xlink:href="#DejaVuSans-30" x="63.623047"/>
       <use xlink:href="#DejaVuSans-30" x="127.246094"/>
       <use xlink:href="#DejaVuSans-30" x="190.869141"/>
      </g>
     </g>
    </g>
    <g id="ytick_3">
     <g id="line2d_18">
      <g>
       <use xlink:href="#m8c6ff2f55d" x="39.65" y="194.050769" style="stroke: #000000; stroke-width: 0.8"/>
      </g>
     </g>
     <g id="text_18">
      <!-- 2000 -->
      <g transform="translate(7.2 197.849987) scale(0.1 -0.1)">
       <defs>
        <path id="DejaVuSans-32" d="M 1228 531 
L 3431 531 
L 3431 0 
L 469 0 
L 469 531 
Q 828 903 1448 1529 
Q 2069 2156 2228 2338 
Q 2531 2678 2651 2914 
Q 2772 3150 2772 3378 
Q 2772 3750 2511 3984 
Q 2250 4219 1831 4219 
Q 1534 4219 1204 4116 
Q 875 4013 500 3803 
L 500 4441 
Q 881 4594 1212 4672 
Q 1544 4750 1819 4750 
Q 2544 4750 2975 4387 
Q 3406 4025 3406 3419 
Q 3406 3131 3298 2873 
Q 3191 2616 2906 2266 
Q 2828 2175 2409 1742 
Q 1991 1309 1228 531 
z
" transform="scale(0.015625)"/>
       </defs>
       <use xlink:href="#DejaVuSans-32"/>
       <use xlink:href="#DejaVuSans-30" x="63.623047"/>
       <use xlink:href="#DejaVuSans-30" x="127.246094"/>
       <use xlink:href="#DejaVuSans-30" x="190.869141"/>
      </g>
     </g>
    </g>
    <g id="ytick_4">
     <g id="line2d_19">
      <g>
       <use xlink:href="#m8c6ff2f55d" x="39.65" y="121.156153" style="stroke: #000000; stroke-width: 0.8"/>
      </g>
     </g>
     <g id="text_19">
      <!-- 3000 -->
      <g transform="translate(7.2 124.955372) scale(0.1 -0.1)">
       <defs>
        <path id="DejaVuSans-33" d="M 2597 2516 
Q 3050 2419 3304 2112 
Q 3559 1806 3559 1356 
Q 3559 666 3084 287 
Q 2609 -91 1734 -91 
Q 1441 -91 1130 -33 
Q 819 25 488 141 
L 488 750 
Q 750 597 1062 519 
Q 1375 441 1716 441 
Q 2309 441 2620 675 
Q 2931 909 2931 1356 
Q 2931 1769 2642 2001 
Q 2353 2234 1838 2234 
L 1294 2234 
L 1294 2753 
L 1863 2753 
Q 2328 2753 2575 2939 
Q 2822 3125 2822 3475 
Q 2822 3834 2567 4026 
Q 2313 4219 1838 4219 
Q 1578 4219 1281 4162 
Q 984 4106 628 3988 
L 628 4550 
Q 988 4650 1302 4700 
Q 1616 4750 1894 4750 
Q 2613 4750 3031 4423 
Q 3450 4097 3450 3541 
Q 3450 3153 3228 2886 
Q 3006 2619 2597 2516 
z
" transform="scale(0.015625)"/>
       </defs>
       <use xlink:href="#DejaVuSans-33"/>
       <use xlink:href="#DejaVuSans-30" x="63.623047"/>
       <use xlink:href="#DejaVuSans-30" x="127.246094"/>
       <use xlink:href="#DejaVuSans-30" x="190.869141"/>
      </g>
     </g>
    </g>
    <g id="ytick_5">
     <g id="line2d_20">
      <g>
       <use xlink:href="#m8c6ff2f55d" x="39.65" y="48.261537" style="stroke: #000000; stroke-width: 0.8"/>
      </g>
     </g>
     <g id="text_20">
      <!-- 4000 -->
      <g transform="translate(7.2 52.060756) scale(0.1 -0.1)">
       <defs>
        <path id="DejaVuSans-34" d="M 2419 4116 
L 825 1625 
L 2419 1625 
L 2419 4116 
z
M 2253 4666 
L 3047 4666 
L 3047 1625 
L 3713 1625 
L 3713 1100 
L 3047 1100 
L 3047 0 
L 2419 0 
L 2419 1100 
L 313 1100 
L 313 1709 
L 2253 4666 
z
" transform="scale(0.015625)"/>
       </defs>
       <use xlink:href="#DejaVuSans-34"/>
       <use xlink:href="#DejaVuSans-30" x="63.623047"/>
       <use xlink:href="#DejaVuSans-30" x="127.246094"/>
       <use xlink:href="#DejaVuSans-30" x="190.869141"/>
      </g>
     </g>
    </g>
   </g>
   <g id="patch_78">
    <path d="M 39.65 339.84 
L 39.65 7.2 
" style="fill: none; stroke: #000000; stroke-width: 0.8; stroke-linejoin: miter; stroke-linecap: square"/>
   </g>
   <g id="patch_79">
    <path d="M 541.85 339.84 
L 541.85 7.2 
" style="fill: none; stroke: #000000; stroke-width: 0.8; stroke-linejoin: miter; stroke-linecap: square"/>
   </g>
   <g id="patch_80">
    <path d="M 39.65 339.84 
L 541.85 339.84 
" style="fill: none; stroke: #000000; stroke-width: 0.8; stroke-linejoin: miter; stroke-linecap: square"/>
   </g>
   <g id="patch_81">
    <path d="M 39.65 7.2 
L 541.85 7.2 
" style="fill: none; stroke: #000000; stroke-width: 0.8; stroke-linejoin: miter; stroke-linecap: square"/>
   </g>
   <g id="legend_1">
    <g id="patch_82">
     <path d="M 461.065625 88.590625 
L 534.85 88.590625 
Q 536.85 88.590625 536.85 86.590625 
L 536.85 14.2 
Q 536.85 12.2 534.85 12.2 
L 461.065625 12.2 
Q 459.065625 12.2 459.065625 14.2 
L 459.065625 86.590625 
Q 459.065625 88.590625 461.065625 88.590625 
z
" style="fill: #ffffff; opacity: 0.8; stroke: #cccccc; stroke-linejoin: miter"/>
    </g>
    <g id="patch_83">
     <path d="M 463.065625 23.798437 
L 483.065625 23.798437 
L 483.065625 16.798437 
L 463.065625 16.798437 
z
" style="fill: url(#he5f2069119); stroke: #ffffff; stroke-linejoin: miter"/>
    </g>
    <g id="text_21">
     <!-- LineVul -->
     <g transform="translate(491.065625 23.798437) scale(0.1 -0.1)">
      <defs>
       <path id="DejaVuSans-56" d="M 1831 0 
L 50 4666 
L 709 4666 
L 2188 738 
L 3669 4666 
L 4325 4666 
L 2547 0 
L 1831 0 
z
" transform="scale(0.015625)"/>
      </defs>
      <use xlink:href="#DejaVuSans-4c"/>
      <use xlink:href="#DejaVuSans-69" x="55.712891"/>
      <use xlink:href="#DejaVuSans-6e" x="83.496094"/>
      <use xlink:href="#DejaVuSans-65" x="146.875"/>
      <use xlink:href="#DejaVuSans-56" x="208.398438"/>
      <use xlink:href="#DejaVuSans-75" x="270.056641"/>
      <use xlink:href="#DejaVuSans-6c" x="333.435547"/>
     </g>
    </g>
    <g id="patch_84">
     <path d="M 463.065625 38.476562 
L 483.065625 38.476562 
L 483.065625 31.476562 
L 463.065625 31.476562 
z
" style="fill: url(#h8289a16c52); stroke: #ffffff; stroke-linejoin: miter"/>
    </g>
    <g id="text_22">
     <!-- SVulD -->
     <g transform="translate(491.065625 38.476562) scale(0.1 -0.1)">
      <use xlink:href="#DejaVuSans-53"/>
      <use xlink:href="#DejaVuSans-56" x="63.476562"/>
      <use xlink:href="#DejaVuSans-75" x="125.134766"/>
      <use xlink:href="#DejaVuSans-6c" x="188.513672"/>
      <use xlink:href="#DejaVuSans-44" x="216.296875"/>
     </g>
    </g>
    <g id="patch_85">
     <path d="M 463.065625 53.154687 
L 483.065625 53.154687 
L 483.065625 46.154687 
L 463.065625 46.154687 
z
" style="fill: #8da0cb; stroke: #ffffff; stroke-linejoin: miter"/>
    </g>
    <g id="text_23">
     <!-- Devign -->
     <g transform="translate(491.065625 53.154687) scale(0.1 -0.1)">
      <defs>
       <path id="DejaVuSans-76" d="M 191 3500 
L 800 3500 
L 1894 563 
L 2988 3500 
L 3597 3500 
L 2284 0 
L 1503 0 
L 191 3500 
z
" transform="scale(0.015625)"/>
      </defs>
      <use xlink:href="#DejaVuSans-44"/>
      <use xlink:href="#DejaVuSans-65" x="77.001953"/>
      <use xlink:href="#DejaVuSans-76" x="138.525391"/>
      <use xlink:href="#DejaVuSans-69" x="197.705078"/>
      <use xlink:href="#DejaVuSans-67" x="225.488281"/>
      <use xlink:href="#DejaVuSans-6e" x="288.964844"/>
     </g>
    </g>
    <g id="patch_86">
     <path d="M 463.065625 67.832812 
L 483.065625 67.832812 
L 483.065625 60.832812 
L 463.065625 60.832812 
z
" style="fill: #e78ac3; stroke: #ffffff; stroke-linejoin: miter"/>
    </g>
    <g id="text_24">
     <!-- Reveal -->
     <g transform="translate(491.065625 67.832812) scale(0.1 -0.1)">
      <use xlink:href="#DejaVuSans-52"/>
      <use xlink:href="#DejaVuSans-65" x="64.982422"/>
      <use xlink:href="#DejaVuSans-76" x="126.505859"/>
      <use xlink:href="#DejaVuSans-65" x="185.685547"/>
      <use xlink:href="#DejaVuSans-61" x="247.208984"/>
      <use xlink:href="#DejaVuSans-6c" x="308.488281"/>
     </g>
    </g>
    <g id="patch_87">
     <path d="M 463.065625 82.510937 
L 483.065625 82.510937 
L 483.065625 75.510937 
L 463.065625 75.510937 
z
" style="fill: #a6d854; stroke: #ffffff; stroke-linejoin: miter"/>
    </g>
    <g id="text_25">
     <!-- IVdetect -->
     <g transform="translate(491.065625 82.510937) scale(0.1 -0.1)">
      <use xlink:href="#DejaVuSans-49"/>
      <use xlink:href="#DejaVuSans-56" x="29.492188"/>
      <use xlink:href="#DejaVuSans-64" x="97.900391"/>
      <use xlink:href="#DejaVuSans-65" x="161.376953"/>
      <use xlink:href="#DejaVuSans-74" x="222.900391"/>
      <use xlink:href="#DejaVuSans-65" x="262.109375"/>
      <use xlink:href="#DejaVuSans-63" x="323.632812"/>
      <use xlink:href="#DejaVuSans-74" x="378.613281"/>
     </g>
    </g>
   </g>
  </g>
 </g>
 <defs>
  <clipPath id="p3c1842d1a3">
   <rect x="39.65" y="7.2" width="502.2" height="332.64"/>
  </clipPath>
 </defs>
 <defs>
  <pattern id="he5f2069119" patternUnits="userSpaceOnUse" x="0" y="0" width="72" height="72">
   <rect x="0" y="0" width="73" height="73" fill="#66c2a5"/>
   <path d="M -36 36 
L 36 108 
M -32 32 
L 40 104 
M -28 28 
L 44 100 
M -24 24 
L 48 96 
M -20 20 
L 52 92 
M -16 16 
L 56 88 
M -12 12 
L 60 84 
M -8 8 
L 64 80 
M -4 4 
L 68 76 
M 0 0 
L 72 72 
M 4 -4 
L 76 68 
M 8 -8 
L 80 64 
M 12 -12 
L 84 60 
M 16 -16 
L 88 56 
M 20 -20 
L 92 52 
M 24 -24 
L 96 48 
M 28 -28 
L 100 44 
M 32 -32 
L 104 40 
M 36 -36 
L 108 36 
" style="fill: #ffffff; stroke: #ffffff; stroke-width: 1.0; stroke-linecap: butt; stroke-linejoin: miter"/>
  </pattern>
  <pattern id="h8289a16c52" patternUnits="userSpaceOnUse" x="0" y="0" width="72" height="72">
   <rect x="0" y="0" width="73" height="73" fill="#fc8d62"/>
   <path d="M -36 36 
L 36 108 
M -32 32 
L 40 104 
M -28 28 
L 44 100 
M -24 24 
L 48 96 
M -20 20 
L 52 92 
M -16 16 
L 56 88 
M -12 12 
L 60 84 
M -8 8 
L 64 80 
M -4 4 
L 68 76 
M 0 0 
L 72 72 
M 4 -4 
L 76 68 
M 8 -8 
L 80 64 
M 12 -12 
L 84 60 
M 16 -16 
L 88 56 
M 20 -20 
L 92 52 
M 24 -24 
L 96 48 
M 28 -28 
L 100 44 
M 32 -32 
L 104 40 
M 36 -36 
L 108 36 
" style="fill: #ffffff; stroke: #ffffff; stroke-width: 1.0; stroke-linecap: butt; stroke-linejoin: miter"/>
  </pattern>
 </defs>
</svg>
